Coordinates
version=1
nRows=17
nColumns=40
inDegrees=yes

Units are S.I. units (second, meters, Newtons, ...)
Angles are in degrees.

endheader
time	pelvis_tilt	pelvis_list	pelvis_rotation	pelvis_tx	pelvis_ty	pelvis_tz	hip_flexion_r	hip_adduction_r	hip_rotation_r	knee_angle_r	knee_angle_r_beta	ankle_angle_r	subtalar_angle_r	mtp_angle_r	hip_flexion_l	hip_adduction_l	hip_rotation_l	knee_angle_l	knee_angle_l_beta	ankle_angle_l	subtalar_angle_l	mtp_angle_l	lumbar_extension	lumbar_bending	lumbar_rotation	arm_flex_r	arm_add_r	arm_rot_r	elbow_flex_r	pro_sup_r	wrist_flex_r	wrist_dev_r	arm_flex_l	arm_add_l	arm_rot_l	elbow_flex_l	pro_sup_l	wrist_flex_l	wrist_dev_l
     29.67500000	     -3.27126971	     -4.58103018	     12.06931095	      0.94947742	      0.92145890	      0.45310406	     -1.68206342	      2.78543247	    -16.97583219	     21.09364076	     21.09364076	     17.94653654	     -9.40545253	     -0.12364659	     26.52583495	     -2.59861040	      4.06748464	     25.98914717	     25.98914717	      8.24009315	     -8.41532238	     -0.54337486	     -5.94338348	      0.29482792	      5.21388834	     62.35222636	    -20.55253672	     -9.03891192	     88.46480556	     44.50555986	      0.00000000	      0.00000000	    -18.90976565	    -12.19697783	     11.53216016	     31.13798747	     44.03267926	      0.00000000	      0.00000000
     29.69400000	     -3.29876173	     -4.68179196	     11.63326132	      0.94958562	      0.92282983	      0.45092939	     -1.20930343	      2.53843997	    -16.70871760	     22.43667711	     22.43667711	     16.29839940	    -10.67618298	     -3.10895099	     25.94429954	     -2.93805426	      3.20568074	     25.75831501	     25.75831501	      8.93075836	     -7.37542496	     -0.94168953	     -5.89204670	      0.06589803	      5.03628503	     61.95073012	    -20.26191317	     -8.90312769	     88.14270898	     44.63309937	      0.00000000	      0.00000000	    -17.16624268	    -11.48265371	      6.02899497	     29.74181432	     45.08293119	      0.00000000	      0.00000000
     29.71300000	     -3.29810841	     -4.64118442	     11.18338767	      0.94928648	      0.92428778	      0.44878335	     -0.44520358	      2.01002798	    -16.63335437	     24.49855865	     24.49855865	     15.72443100	    -11.31991637	     -3.35179825	     25.17950373	     -3.06579464	      2.50958104	     25.26460654	     25.26460654	      9.38254652	     -6.84395830	     -1.21638566	     -5.96531338	     -0.29581787	      4.83763747	     61.51337761	    -19.93298408	     -8.70793981	     87.84988558	     44.64157390	      0.00000000	      0.00000000	    -15.78545084	    -11.92870717	      5.79679980	     30.13614953	     45.14658238	      0.00000000	      0.00000000
     29.73200000	     -3.33159168	     -4.60926734	     10.74255094	      0.94863473	      0.92554021	      0.44668647	      0.55956408	      1.45493076	    -16.54020352	     26.85747214	     26.85747214	     15.01477665	    -12.22690187	     -3.76782669	     24.48257953	     -3.19205878	      1.77831767	     24.78382380	     24.78382380	      9.81649193	     -6.17951067	     -1.61427893	     -5.98295941	     -0.58761485	      4.61115390	     60.96633393	    -19.58094535	     -8.48021758	     87.56207848	     44.64919943	      0.00000000	      0.00000000	    -14.21096792	    -12.33670317	      5.53299219	     30.35412799	     45.21844030	      0.00000000	      0.00000000
     29.75100000	     -3.30878177	     -4.53070274	     10.29038782	      0.94768792	      0.92678282	      0.44458792	      1.62426730	      0.82335160	    -16.47582384	     29.38355695	     29.38355695	     14.17351739	    -13.22304647	     -4.23184757	     23.72513435	     -3.25640900	      1.02430408	     24.28466557	     24.28466557	     10.15695474	     -5.66466067	     -1.94916403	     -6.13678538	     -0.87861950	      4.30331618	     60.34362877	    -19.14890058	     -8.21650471	     87.36100145	     44.65086776	      0.00000000	      0.00000000	    -12.46439391	    -12.69017281	      5.31922359	     30.47881227	     45.28380419	      0.00000000	      0.00000000
     29.77000000	     -3.29359253	     -4.43042204	      9.85114944	      0.94645364	      0.92784801	      0.44246286	      2.82100165	      0.13968202	    -16.42295719	     32.06631195	     32.06631195	     13.17901485	    -14.32549527	     -4.74735469	     23.00490984	     -3.25152620	      0.37054942	     23.80555584	     23.80555584	     10.44007389	     -5.27792235	     -2.27945089	     -6.28029770	     -1.14500025	      3.94629651	     59.52938741	    -18.66243683	     -7.92823882	     87.20769296	     44.64924106	      0.00000000	      0.00000000	    -10.56079521	    -13.01975978	      5.12450437	     30.45757525	     45.34859012	      0.00000000	      0.00000000
     29.78900000	     -3.27918416	     -4.31574766	      9.42617825	      0.94501134	      0.92874113	      0.44021816	      4.10983973	     -0.58835419	    -16.36818346	     34.84377447	     34.84377447	     11.98261258	    -15.50672094	     -5.33056268	     22.31688871	     -3.17017387	     -0.15500868	     23.35564683	     23.35564683	     10.63931721	     -5.10129899	     -2.60764407	     -6.42098383	     -1.34886722	      3.55507544	     58.48053029	    -18.15865331	     -7.64482719	     87.12780871	     44.64541852	      0.00000000	      0.00000000	     -8.48559812	    -13.29595485	      4.93976083	     30.19485250	     45.41567142	      0.00000000	      0.00000000
     29.80800000	     -3.19163452	     -4.16197985	      9.00640874	      0.94342371	      0.92957270	      0.43789010	      5.35741858	     -1.38576832	    -16.37767276	     37.64594065	     37.64594065	     10.68560812	    -16.60248358	     -5.79553171	     21.61441115	     -3.00853693	     -0.56149991	     23.00409322	     23.00409322	     10.81562823	     -5.20817400	     -2.84892625	     -6.65653260	     -1.50324687	      3.14323141	     57.21300849	    -17.55134231	     -7.34103126	     87.08499291	     44.63758021	      0.00000000	      0.00000000	     -6.28459226	    -13.50765365	      4.81507258	     29.97604269	     45.47538285	      0.00000000	      0.00000000
     29.82700000	     -3.17882457	     -4.02025208	      8.62326754	      0.94169445	      0.93006443	      0.43531756	      6.75545631	     -2.25296290	    -16.44887855	     40.51798668	     40.51798668	      9.19554941	    -17.60973018	     -6.38712366	     21.01227606	     -2.72759400	     -0.61875458	     22.63809348	     22.63809348	     10.81074412	     -5.83861114	     -3.12091145	     -6.74957389	     -1.55756001	      2.84386101	     55.51404128	    -17.12399209	     -7.17189538	     87.24984746	     44.63107247	      0.00000000	      0.00000000	     -3.72648586	    -13.55876839	      4.67593222	     29.00778018	     45.54865308	      0.00000000	      0.00000000
     29.84600000	     -3.04094291	     -3.81404214	      8.23259796	      0.93998509	      0.93058491	      0.43255819	      8.02306857	     -3.22988957	    -16.53805310	     43.38588744	     43.38588744	      7.65618237	    -18.27030591	     -6.66826350	     20.26479564	     -2.21862195	     -0.03517622	     22.24271244	     22.24271244	     10.39458490	     -7.74400266	     -3.61328759	     -7.01049609	     -1.61058538	      3.23002777	     53.05187571	    -17.28457671	     -7.50764433	     88.24876687	     44.63381336	      0.00000000	      0.00000000	      0.10987031	    -13.15462090	      4.44116197	     25.99492812	     45.67828146	      0.00000000	      0.00000000
     29.86500000	     -2.81027779	     -3.60401322	      7.81025522	      0.93837537	      0.93081146	      0.42984426	      9.26631311	     -4.22200324	    -16.53492882	     46.35162645	     46.35162645	      6.18131962	    -18.76171305	     -6.37483343	     19.67077180	     -1.93548600	     -0.29003283	     22.36719055	     22.36719055	     10.66468041	     -8.09510808	     -3.78542839	     -7.36593878	     -1.57168758	      2.75029799	     51.04567977	    -16.47537670	     -7.12327596	     87.94383083	     44.62816081	      0.00000000	      0.00000000	      2.20864942	    -13.25809254	      4.40800078	     26.36678805	     45.72386050	      0.00000000	      0.00000000
     29.88400000	     -2.52176031	     -3.43732088	      7.42652040	      0.93680385	      0.93079040	      0.42699747	     10.47867088	     -5.18633651	    -16.51819763	     49.31278369	     49.31278369	      4.66624870	    -19.08253311	     -5.75424212	     19.14125004	     -1.62270600	     -0.26679724	     22.68907527	     22.68907527	     10.92018011	     -8.84941806	     -3.82476484	     -7.75690061	     -1.39738615	      2.32985272	     48.71900840	    -15.66345032	     -6.72007433	     87.46878091	     44.62471383	      0.00000000	      0.00000000	      4.39413182	    -13.29185860	      4.41033696	     26.77443785	     45.76452542	      0.00000000	      0.00000000
     29.90300000	     -2.41773248	     -3.12902397	      6.97527452	      0.93517000	      0.93006075	      0.42406668	     12.06697918	     -6.35179313	    -16.25430102	     52.53044097	     52.53044097	      3.30375967	    -19.27308357	     -4.35686203	     18.89640418	     -1.05773602	     -0.04696229	     23.20167659	     23.20167659	     11.13307813	    -10.25684238	     -3.68235710	     -7.93499178	     -1.37698414	      2.06601107	     46.02983679	    -15.14365590	     -6.43468322	     86.80722994	     44.63132845	      0.00000000	      0.00000000	      6.60845104	    -13.28324889	      4.43060972	     27.03168442	     45.80325673	      0.00000000	      0.00000000
     29.92200000	     -2.22228309	     -2.84895970	      6.53448344	      0.93360180	      0.92905806	      0.42114465	     13.61402436	     -7.39145395	    -15.78355607	     55.71635648	     55.71635648	      2.09539544	    -19.42384601	     -2.09582878	     18.70579267	     -0.47392997	      0.40084780	     23.97225772	     23.97225772	     11.33482402	    -11.97821144	     -3.40187276	     -8.15823803	     -1.29923603	      1.97004416	     43.05760848	    -14.73278453	     -6.17567560	     85.87206570	     44.64709717	      0.00000000	      0.00000000	      8.97554121	    -13.17825655	      4.48252048	     27.35516111	     45.83915654	      0.00000000	      0.00000000
     29.94100000	     -2.09181264	     -2.79850302	      6.09766327	      0.93183649	      0.92769055	      0.41851540	     15.82594559	     -7.66255587	    -14.40720025	     59.57782013	     59.57782013	      4.32974756	    -19.44722152	     12.02358438	     18.70657894	      0.00161277	      1.38990772	     24.90192996	     24.90192996	     11.91206303	    -14.28941344	     -1.65909263	     -8.36948414	     -0.88003625	      2.76397057	     39.43840098	    -14.99992022	     -6.99867778	     85.58151484	     44.71591653	      0.00000000	      0.00000000	     12.57146152	    -12.50992899	      5.12894031	     25.64578431	     45.81151639	      0.00000000	      0.00000000
     29.96000000	     -1.81673547	     -2.60151391	      5.62351313	      0.93045456	      0.92599900	      0.41572409	     17.37859420	     -8.37846332	    -13.57196708	     62.57099294	     62.57099294	      3.86078800	    -19.54698717	     16.24717768	     18.71760781	      0.44706747	      1.59442107	     26.23224258	     26.23224258	     12.78992532	    -15.41730553	     -0.55276240	     -8.68159462	     -0.60376737	      2.79420339	     36.34564033	    -14.68578999	     -6.75661057	     83.50704711	     44.80386826	      0.00000000	      0.00000000	     14.68439468	    -12.41837022	      5.54969025	     26.68554770	     45.77202903	      0.00000000	      0.00000000
     29.97900000	     -1.56195545	     -2.39033774	      5.13482456	      0.92918565	      0.92389030	      0.41291771	     18.79611883	     -9.09991094	    -12.74960398	     65.19800783	     65.19800783	      2.75357573	    -19.62716660	     17.09854758	     18.77190735	      0.88227502	      1.64037696	     27.57179776	     27.57179776	     13.33782933	    -16.49895931	     -0.47881181	     -8.98399731	     -0.31545611	      2.81109462	     33.08073152	    -14.47244739	     -6.34530482	     81.43458823	     44.85002472	      0.00000000	      0.00000000	     16.69519687	    -12.33031066	      5.58173920	     27.79503039	     45.79983057	      0.00000000	      0.00000000
